#!OML:ASF I:\Actors\actors\Patient Classification 2\Patient 1\Session 1\actor1.ASF
:FULLY-SPECIFIED
:DEGREES
51
root -0.655195 18.6601 5.77252 -0.148429 -2.75351 -4.39188
lowerback 1.33128 0.914713 1.9958
upperback -1.41567 1.28444 0.862717
thorax -2.17397 0.616722 -0.274188
lowerneck -10.6749 -0.985294 -0.200265
upperneck 23.6352 -2.07506 2.96968
head 9.21014 -0.673579 0.822186
rclavicle -8.89561e-015 -6.16232e-015
rhumerus -48.0668 0.644815 -88.1455
rradius 40.5996
rwrist 17.2492
rhand -4.20603 -35.7915
rfingers 7.12502
rthumb 21.5561 -64.6119
lclavicle -8.89561e-015 -6.16232e-015
lhumerus -43.7244 6.53168 86.7957
lradius 36.1935
lwrist -10.7284
lhand -11.1884 -27.3547
lfingers 7.12502
lthumb 14.839 2.09398
rfemur 0 0 0
rtibia 0
rfoot 0 0
rtoes 0
lfemur -3.37636 -7.332 -10.5801
ltibia 23.4389
lfoot -24.9828 14.0242
ltoes -54.5415
52
root -0.655025 18.6598 5.77185 -0.158388 -2.75723 -4.37064
lowerback 1.35103 0.919798 1.9932
upperback -1.41559 1.29149 0.851053
thorax -2.18464 0.620088 -0.285266
lowerneck -10.7123 -0.986288 -0.220186
upperneck 23.6666 -2.08166 3.00241
head 9.22891 -0.67417 0.836071
rclavicle 1.83627e-014 8.15017e-015
rhumerus -48.0741 0.634831 -88.1337
rradius 40.6175
rwrist 17.278
rhand -4.16316 -35.7974
rfingers 7.12502
rthumb 21.5973 -64.613
lclavicle 1.83627e-014 8.15017e-015
lhumerus -43.7198 6.551 86.7701
lradius 36.1995
lwrist -10.7528
lhand -11.1997 -27.3719
lfingers 7.12502
lthumb 14.8282 2.07753
rfemur 0 0 0
rtibia 0
rfoot 0 0
rtoes 0
lfemur -3.36016 -7.35154 -10.6079
ltibia 23.4308
lfoot -25.0132 13.9978
ltoes -54.436
53
root -0.654914 18.6596 5.77108 -0.172311 -2.75604 -4.36012
lowerback 1.38226 0.935168 2.0083
upperback -1.42807 1.31301 0.827858
thorax -2.21375 0.63007 -0.318854
lowerneck -10.6902 -1.00135 -0.136715
upperneck 23.6373 -2.0973 2.91429
head 9.21301 -0.684047 0.789911
rclavicle 4.00054e-015 -1.27222e-014
rhumerus -48.1111 0.564891 -88.113
rradius 40.63
rwrist 17.3522
rhand -4.08313 -35.7963
rfingers 7.12502
rthumb 21.6741 -64.6031
lclavicle 4.00054e-015 -1.27222e-014
lhumerus -43.7425 6.482 86.7568
lradius 36.2303
lwrist -10.7432
lhand -11.2078 -27.2907
lfingers 7.12502
lthumb 14.8204 2.15933
rfemur 0 0 0
rtibia 0
rfoot 0 0
rtoes 0
lfemur -3.34683 -7.40705 -10.6313
ltibia 23.4278
lfoot -25.0658 14.0355
ltoes -54.3781
54
root -0.654715 18.6597 5.76956 -0.183964 -2.75948 -4.36949
lowerback 1.42822 0.9465 2.04672
upperback -1.45119 1.33041 0.807496
thorax -2.26172 0.637389 -0.362855
lowerneck -10.6527 -1.00636 -0.0356028
upperneck 23.6039 -2.09666 2.8036
head 9.19202 -0.687374 0.734918
rclavicle 1.19022e-014 -2.78299e-015
rhumerus -48.1655 0.487184 -88.0993
rradius 40.6441
rwrist 17.4071
rhand -3.99158 -35.8274
rfingers 7.12502
rthumb 21.762 -64.6241
lclavicle 1.19022e-014 -2.78299e-015
lhumerus -43.7062 5.99045 86.9335
lradius 36.169
lwrist -10.2697
lhand -11.3111 -27.1373
lfingers 7.12502
lthumb 14.7208 2.32001
rfemur 0 0 0
rtibia 0
rfoot 0 0
rtoes 0
lfemur -3.34071 -7.43272 -10.6286
ltibia 23.4309
lfoot -25.055 14.083
ltoes -54.4526
55
root -0.654822 18.6599 5.76705 -0.196948 -2.76916 -4.39518
lowerback 1.47698 0.951987 2.08801
upperback -1.45698 1.34019 0.802805
thorax -2.2939 0.641207 -0.392051
lowerneck -10.6681 -1.01496 -0.0444705
upperneck 23.6181 -2.11742 2.84394
head 9.20085 -0.693251 0.747939
rclavicle -2.77056e-015 -1.27222e-014
rhumerus -48.1812 0.462054 -88.1042
rradius 40.6622
rwrist 17.3824
rhand -3.96803 -35.9015
rfingers 7.12502
rthumb 21.7847 -64.6955
lclavicle -2.77056e-015 -1.27222e-014
lhumerus -43.6225 5.5469 87.1095
lradius 36.0691
lwrist -9.81445
lhand -11.446 -27.0984
lfingers 7.12502
lthumb 14.5908 2.36835
rfemur 0 0 0
rtibia 0
rfoot 0 0
rtoes 0
lfemur -3.32972 -7.42559 -10.6007
ltibia 23.437
lfoot -25.0359 14.0935
ltoes -54.5173
56
root -0.654995 18.6602 5.76449 -0.198128 -2.77131 -4.38954
lowerback 1.49905 0.951297 2.07148
upperback -1.45867 1.33957 0.804775
thorax -2.30846 0.641044 -0.381202
lowerneck -10.6765 -1.03519 -0.124978
upperneck 23.6399 -2.16488 2.98577
head 9.21344 -0.707096 0.80502
rclavicle -2.60905e-015 8.74653e-015
rhumerus -48.1738 0.502132 -88.1231
rradius 40.6664
rwrist 17.3302
rhand -3.9814 -36.0272
rfingers 7.12502
rthumb 21.7718 -64.8227
lclavicle -2.60905e-015 8.74653e-015
lhumerus -43.6915 5.89362 86.9284
lradius 36.1589
lwrist -10.2061
lhand -11.3578 -27.2286
lfingers 7.12502
lthumb 14.6758 2.23204
rfemur 0 0 0
rtibia 0
rfoot 0 0
rtoes 0
lfemur -3.33093 -7.42984 -10.6083
ltibia 23.4367
lfoot -25.027 14.1182
ltoes -54.5527
57
root -0.654814 18.6609 5.76313 -0.193264 -2.77288 -4.35518
lowerback 1.512 0.945447 2.01315
upperback -1.47042 1.33106 0.813806
thorax -2.32949 0.637606 -0.339398
lowerneck -10.6729 -1.05377 -0.180671
upperneck 23.6557 -2.19488 3.04574
head 9.22012 -0.719543 0.831793
rclavicle -8.32411e-015 4.77083e-015
rhumerus -48.1656 0.564796 -88.1272
rradius 40.6403
rwrist 17.3212
rhand -3.97121 -36.1272
rfingers 7.12502
rthumb 21.7816 -64.9215
lclavicle -8.32411e-015 4.77083e-015
lhumerus -43.7963 6.26268 86.7596
lradius 36.2751
lwrist -10.6014
lhand -11.217 -27.3162
lfingers 7.12502
lthumb 14.8114 2.13449
rfemur 0 0 0
rtibia 0
rfoot 0 0
rtoes 0
lfemur -3.33661 -7.43734 -10.6511
ltibia 23.4246
lfoot -25.015 14.1714
ltoes -54.618
58
root -0.654915 18.6614 5.76204 -0.199295 -2.78297 -4.30785
lowerback 1.53264 0.941023 1.95758
upperback -1.4712 1.32431 0.813668
thorax -2.34322 0.635052 -0.308629
lowerneck -10.721 -1.06485 -0.209493
upperneck 23.7001 -2.20465 3.03785
head 9.24506 -0.726533 0.832884
rclavicle 1.00014e-014 -1.19271e-015
rhumerus -48.1518 0.603536 -88.1235
rradius 40.6286
rwrist 17.3465
rhand -3.88498 -36.1919
rfingers 7.12502
rthumb 21.8644 -64.9766
lclavicle 1.00014e-014 -1.19271e-015
lhumerus -43.7872 6.28129 86.76
lradius 36.2743
lwrist -10.6069
lhand -11.2226 -27.3173
lfingers 7.12502
lthumb 14.8061 2.13375
rfemur 0 0 0
rtibia 0
rfoot 0 0
rtoes 0
lfemur -3.32396 -7.47456 -10.7122
ltibia 23.4042
lfoot -25.0087 14.2357
ltoes -54.6677
59
root -0.655397 18.6611 5.76057 -0.20206 -2.78664 -4.27455
lowerback 1.53071 0.939784 1.93161
upperback -1.45924 1.32146 0.802682
thorax -2.33018 0.634147 -0.305111
lowerneck -10.7827 -1.0711 -0.220009
upperneck 23.7438 -2.21426 3.04159
head 9.27233 -0.730431 0.834809
rclavicle -1.81018e-014 -2.78299e-015
rhumerus -48.1288 0.614783 -88.1274
rradius 40.6249
rwrist 17.3607
rhand -3.79976 -36.1913
rfingers 7.12502
rthumb 21.9462 -64.9665
lclavicle -1.81018e-014 -2.78299e-015
lhumerus -43.7325 6.27999 86.7518
lradius 36.2381
lwrist -10.6072
lhand -11.2883 -27.3047
lfingers 7.12502
lthumb 14.7428 2.15102
rfemur 0 0 0
rtibia 0
rfoot 0 0
rtoes 0
lfemur -3.31393 -7.54673 -10.7552
ltibia 23.3866
lfoot -25.0375 14.2651
ltoes -54.5943
60
root -0.65551 18.6607 5.75939 -0.207971 -2.79447 -4.27178
lowerback 1.53109 0.951078 1.94315
upperback -1.45563 1.33647 0.788721
thorax -2.32581 0.641375 -0.326361
lowerneck -10.8135 -1.08472 -0.148258
upperneck 23.7683 -2.23366 2.97714
head 9.28561 -0.739432 0.7983
rclavicle -5.85172e-015 1.35174e-014
rhumerus -48.1219 0.566154 -88.122
rradius 40.6005
rwrist 17.3652
rhand -3.8269 -36.101
rfingers 7.12502
rthumb 21.9202 -64.8792
lclavicle -5.85172e-015 1.35174e-014
lhumerus -43.918 5.94505 86.8823
lradius 36.8525
lwrist -10.3187
lhand -11.1836 -26.9125
lfingers 7.12502
lthumb 14.8436 2.53579
rfemur 0 0 0
rtibia 0
rfoot 0 0
rtoes 0
lfemur -3.29926 -7.58697 -10.7599
ltibia 23.3752
lfoot -25.0871 14.2473
ltoes -54.4712
